Fly_normalized_Motion_pl11
version=1
nRows=14
nColumns=43
inDegrees=yes
endheader
time		pelvis_tilt		pelvis_list		pelvis_rotation		pelvis_tx		pelvis_ty		pelvis_tz		hip_flexion_r		hip_adduction_r		hip_rotation_r		knee_angle_r		ankle_angle_r		subtalar_angle_r		mtp_angle_r		hip_flexion_l		hip_adduction_l		hip_rotation_l		knee_angle_l		ankle_angle_l		subtalar_angle_l		mtp_angle_l		lumbar_extension		lumbar_bending		lumbar_rotation		neck_flexion		neck_lateral_bending		neck_rotation		arm_flex_r		arm_add_r		arm_rot_r		elbow_flex_r		pro_sup_r		wrist_flex_r		wrist_dev_r		hand_finger_flex_r		arm_flex_l		arm_add_l		arm_rot_l		elbow_flex_l		pro_sup_l		wrist_flex_l		wrist_dev_l		hand_finger_flex_l		
0.650000		-1.201128		-14.835832		90.804653		0.017143		1.898600		1.419636		41.212754		-5.388267		3.771260		-107.178134		-8.845156		4.463342		3.415312		42.579898		-1.569968		2.718804		-109.469624		-2.909070		-17.945680		15.652638		-41.168532		-2.496137		5.184167		14.224121		0.264737		-6.359629		137.977725		-8.577262		40.948687		48.921130		68.260449		-31.675509		-6.056542		23.917608		133.328561		0.744317		21.813092		54.228826		113.914811		-23.381616		12.696369		88.158014		
0.654343		-0.892084		-14.670046		90.983237		0.017023		1.898702		1.412050		41.557199		-5.069617		3.315431		-107.443118		-7.494418		4.683511		3.352990		43.087276		-1.793319		2.788223		-109.683508		-3.298213		-19.608944		15.010847		-41.311602		-2.180519		5.316002		14.046002		0.211076		-6.321806		137.695000		-8.844346		41.074211		49.275599		68.587184		-31.784034		-6.171313		23.836742		133.022448		0.628657		22.009798		54.273673		113.870379		-23.460321		12.522194		87.653317		
0.658687		-0.709493		-14.463554		91.170692		0.016676		1.898712		1.404672		42.015541		-4.922797		2.920515		-107.704853		-6.945553		4.697834		3.051996		43.648522		-1.837111		2.814843		-110.016379		-3.713308		-21.042333		14.178980		-41.536135		-1.915371		5.294920		13.883499		0.213319		-6.348340		137.457535		-9.008656		41.202647		49.476513		68.887623		-31.947428		-6.197381		23.757035		132.688320		0.513759		22.052291		54.295638		113.840301		-23.598790		12.344265		87.162100		
0.663030		-0.579761		-14.324388		91.382199		0.016090		1.898488		1.397346		42.609428		-4.893922		2.523026		-107.996757		-6.372612		4.595287		2.051343		44.308854		-1.776287		2.736332		-110.396783		-3.784497		-22.728393		11.656198		-41.704277		-1.638575		5.242603		13.782536		0.000515		-6.320940		137.080268		-9.297185		41.306909		49.964252		69.409811		-32.074455		-6.205013		23.752067		132.281304		0.332658		22.123151		54.384536		113.797946		-23.646063		12.082371		86.210889		
0.667374		-0.606846		-14.136510		91.478523		0.015562		1.898098		1.390047		43.289919		-4.960977		2.293130		-108.378585		-5.904222		4.444904		-0.201698		44.925696		-1.622032		2.471437		-110.807883		-3.291053		-23.790422		5.887586		-41.929890		-1.545563		5.109949		13.667862		-0.077077		-6.327232		136.653267		-9.535683		41.256434		50.359015		70.168035		-32.122360		-6.048155		23.895479		131.800185		0.117975		22.147456		54.568000		113.699982		-23.340335		11.825586		84.650957		
0.671717		-0.466107		-13.878771		91.747652		0.014898		1.897756		1.382597		43.890396		-4.946468		1.797532		-108.708764		-6.065860		3.539466		-0.299866		45.472768		-1.551060		2.392042		-111.083566		-3.308228		-25.300298		5.087119		-42.232517		-1.237204		4.997520		13.554472		-0.112356		-6.228389		136.139292		-9.933998		41.445415		50.930709		70.578866		-32.474090		-6.370159		23.788592		131.226375		-0.048230		22.172898		54.792705		113.826441		-23.482077		11.773295		84.491123		
0.676061		-0.408802		-13.577600		91.911015		0.014436		1.897213		1.375481		44.567731		-4.956448		1.420582		-109.097345		-6.226093		2.852711		-0.372726		46.056311		-1.423056		2.306559		-111.342235		-3.540309		-26.352671		4.182234		-42.608325		-1.042989		4.883665		13.462151		-0.143038		-6.226800		135.723770		-10.160115		41.565331		51.166578		70.998107		-32.702505		-6.452744		23.777681		130.708955		-0.212873		22.165548		54.897170		113.905520		-23.655336		11.768634		84.165138		
0.680404		-0.361779		-13.313989		92.102687		0.013823		1.896594		1.368229		45.263639		-5.025725		1.009345		-109.434931		-6.311860		2.093583		-0.444425		46.652929		-1.302706		2.122614		-111.445684		-3.624919		-27.483679		3.002128		-42.960189		-0.815723		4.778846		13.453096		-0.336509		-6.158522		135.149205		-10.572588		41.658672		51.777722		71.574684		-32.856112		-6.607080		23.857984		130.041187		-0.457168		22.192042		55.220621		113.966967		-23.830424		11.755112		83.705360		
0.684747		-0.308143		-13.092481		92.311011		0.013366		1.895656		1.361115		46.052710		-5.102645		0.491128		-109.809557		-6.324801		0.877445		-0.594235		47.324913		-1.165071		1.992933		-111.437713		-3.821348		-28.652096		1.212172		-43.238704		-0.598267		4.630979		13.280746		-0.378392		-6.165552		134.456981		-10.856789		41.575489		52.165867		72.662246		-33.100194		-6.642332		24.058086		129.279386		-0.669075		22.145359		55.523589		114.025097		-24.048302		11.845371		82.631914		
0.689091		-0.285907		-12.657659		92.410075		0.012967		1.895015		1.353792		46.593289		-5.109358		0.237849		-110.117468		-6.034197		0.511503		-0.607324		47.691817		-1.122039		1.796034		-111.296962		-3.646858		-28.927633		0.731077		-43.810459		-0.447447		4.587212		13.385330		-0.590876		-6.061030		133.823686		-11.301850		41.605445		52.772937		73.022925		-33.058818		-6.782168		24.191707		128.574497		-0.954723		22.173869		55.854030		114.034944		-24.063958		11.841952		82.302490		
0.693434		-0.223482		-12.331085		92.563980		0.012521		1.893935		1.346520		47.272639		-5.129256		-0.162341		-110.412744		-5.621389		-0.259137		-0.863642		48.206622		-1.057039		1.684892		-111.077747		-3.509644		-29.314624		-0.610421		-44.229089		-0.236129		4.514184		13.332807		-0.729058		-6.002375		133.005709		-11.658051		41.364734		53.293208		74.103249		-33.088243		-6.730425		24.531560		127.699799		-1.234141		22.104844		56.283356		114.128553		-23.982827		11.959487		80.767728		
0.697778		-0.159446		-11.980316		92.713708		0.012203		1.892777		1.339389		47.978173		-5.125059		-0.500075		-110.669012		-5.305585		-0.896756		-1.257201		48.730100		-0.993536		1.569071		-110.818722		-3.383042		-29.526068		-2.314819		-44.688958		-0.036477		4.437050		13.317009		-0.871235		-5.950082		132.123476		-11.975853		41.029468		53.774123		75.314399		-33.087985		-6.587402		24.959009		126.824943		-1.545455		22.008659		56.689682		114.226272		-23.672812		12.100163		78.874826		
0.702121		-0.173957		-11.544780		92.791859		0.011840		1.891670		1.332126		48.611679		-5.159257		-0.737884		-110.867066		-4.942999		-1.565882		-1.274567		49.100408		-0.898514		1.349724		-110.453927		-3.350351		-29.668578		-2.440444		-45.255853		0.072695		4.356424		13.328493		-0.993536		-5.886505		131.253042		-12.437217		41.011177		54.340631		75.518308		-33.230726		-6.841540		24.953576		125.876237		-1.833651		21.906727		57.082984		114.288087		-23.825735		12.030683		78.586177		
0.706465		-0.175494		-11.140042		92.848028		0.011504		1.890321		1.324965		49.326722		-5.141072		-0.949598		-111.021076		-4.697736		-2.202499		-1.326886		49.542105		-0.828092		1.105463		-110.067187		-3.393739		-29.781930		-2.565376		-45.781545		0.181235		4.311735		13.313458		-1.108780		-5.831509		130.292473		-12.894420		40.938410		54.875300		75.804025		-33.399636		-7.043879		24.979279		124.854832		-2.146383		21.840098		57.501030		114.314823		-23.960461		11.979308		78.270724		
